<svg id="Layer_1" data-name="Layer 1" xmlns="http://www.w3.org/2000/svg" xmlns:xlink="http://www.w3.org/1999/xlink" viewBox="0 0 594.19 270.78">
 <defs>
  <style>.cls-1{fill:none;}.cls-2{clip-path:url(#clip-path);}.cls-3{fill:#ff9800;}</style>
  <clipPath id="clip-path">
   <path class="cls-1" d="M-196.48,284.15C-273.17,441.94-407,516.41-642,546.87c-226.62,29.38-336.15-128.37-409.59-262.72C-1135.7,130.2-880.21,100.84-624-33.52-414.91-143.18-92.59,70.38-196.48,284.15Z" />
  </clipPath>
 </defs>
 <title>hand_shake</title>
 <g class="cls-2">
  <image width="1200" height="584" transform="translate(-1240.3 -74.31) scale(1.15)" xlink:href="../Downloads/background-borrocracy.png" />
 </g>
 <path class="cls-3" d="M4.46,102.14c16-28.41,32.16-56.77,48.09-85.24C61.81.36,61.68.29,78.59,9.48c17.63,9.58,35.11,19.46,53,28.61,8.9,4.56,10.75,9.36,5.6,18.46Q113,99.35,90.07,142.89c-4.5,8.53-8.9,9.69-17.25,5C50.27,135.15,27.28,123.21,4.46,111Z" />
 <path class="cls-3" d="M100.67,150.94c17.21-31,33.39-60.52,50.26-89.69,1.61-2.79,9-5.51,11.18-4.17C181,68.53,198.7,62,216.93,55.62c12.68-4.45,25.85-7.53,38.79-11.22l2.79,5c-9,6.68-17.94,13.41-27,20-5.53,4-12.43,7-16.45,12.14-4.93,6.34-11.54,15.52-10,21.64,1.82,7.39,10.38,15.35,17.92,18.44,6.67,2.73,16.51.68,23.95-2,18.37-6.67,36-15.49,54.32-22.16,4.81-1.75,12.84-.78,16.83,2.28,37.71,28.89,74.84,58.54,112.19,87.91,8.36,6.57,12.89,14.32,5.12,23.69s-16.11,6.28-24.41-.3q-44.31-35.18-88.93-70c-3.77-2.95-8.23-5-12.36-7.52L307,137.26c3.27,3,6.34,6.32,9.83,9.08q36.29,28.74,72.74,57.27c8.39,6.54,15.48,13.94,7.74,24.49-8.3,11.32-17.56,6.52-26.49-.6-24.13-19.24-48.43-38.25-72.75-57.25-3.52-2.75-7.48-4.94-11.24-7.39-1,1.22-2.07,2.43-3.11,3.65,3,3,5.78,6.37,9.09,9,19.48,15.64,39,31.27,58.71,46.58,8.94,6.93,13.8,15,5.78,24.78-7.66,9.39-16.65,6.05-24.36-.87-12.73-11.43-25.7-21.61-36.14-36.59-9.57-13.71-30.81-19.73-47.63-27.61-4-1.87-10.87,2.4-17.08,4-14.73-15-18.73-15.77-36.83-6.06-16.33-17.55-25.71-17.51-42.49,1.16Z" />
 <path class="cls-3" d="M496.75,151c-16.43,12-31.88,23.86-48.19,34.46-2.67,1.74-10-1-13.6-3.78-37-28.93-74-58-110.3-87.74-9-7.33-16.28-8.14-26.39-3.37-17.67,8.33-35.62,16.26-54,22.71-7.13,2.5-16.72,2.81-23.62.11-13.07-5.12-13.57-17.44-2.34-26.14,31.79-24.64,64.26-48.18,105.09-55.5,6.64-1.19,14.57-1.11,20.63,1.42a506.21,506.21,0,0,1,50.15,24.22c12.2,6.78,23.44,8.46,35.76,1.22,8.64-5.08,14.34-3.47,19.5,6.45C464.27,93.61,480.39,121.51,496.75,151Z" />
 <path class="cls-3" d="M512.85,155.39c-1.51-3.57-2.75-7.29-4.59-10.68C492,114.63,475.74,84.55,459.2,54.62c-3.93-7.11-2.83-11.39,4.49-15.25Q495.45,22.62,526.74,5c6.8-3.82,10.46-2,13.93,4.46C557.09,40,574,70.31,590.07,101c1.51,2.87.06,10.36-2.32,11.74-22.4,12.94-45.31,25-68.08,37.35-.85.46-1.78.76-2.67,1.14Z" />
 <path class="cls-3" d="M298.25,218.39C292.42,234,288.53,247.7,281.92,260c-2,3.75-12.8,6.26-17.23,4.23s-9.33-11-8.48-15.92A114.82,114.82,0,0,1,268,213.91c2.43-4.52,11.25-8.52,16.48-7.8C289.51,206.8,293.6,213.93,298.25,218.39Z" />
 <path class="cls-3" d="M265.33,200c-5.74,15.38-9.73,29-16.14,41.42-1.93,3.71-11.89,6.74-15.92,5-4.86-2.14-11-10.46-10.14-14.82a150.86,150.86,0,0,1,13.49-38.29c1.89-3.73,11.22-6.26,16.18-5.12C257.6,189.27,261.16,195.8,265.33,200Z" />
 <path class="cls-3" d="M226.56,190c-.29,20.86-11.21,38.6-21.13,38.26-9.71-.33-15.46-6-15.44-15.88,0-16,11.35-34.62,20.92-32.77C217.44,180.85,222.94,187.43,226.56,190Z" />
 <path class="cls-3" d="M157.25,199.79c-.51-16.93,7-27.13,16.54-27,9.87.13,15.3,5.86,15.6,15.51.35,11.29-8.79,22.87-17.53,20.87C165.64,207.76,160.42,201.94,157.25,199.79Z" />
 <path class="cls-3" d="M299.6,231c19.75,12.75,24.23,21.65,16.73,31.12-6.31,8-15.51,7-26.49-3.14C292.91,250.2,296.08,241.11,299.6,231Z" />
</svg>
