<?xml version="1.0" encoding="utf-8"?>
<!-- Generator: Adobe Illustrator 16.0.0, SVG Export Plug-In . SVG Version: 6.00 Build 0)  -->
<!DOCTYPE svg PUBLIC "-//W3C//DTD SVG 1.1//EN" "http://www.w3.org/Graphics/SVG/1.1/DTD/svg11.dtd">
<svg version="1.1" id="Layer_1" xmlns="http://www.w3.org/2000/svg" xmlns:xlink="http://www.w3.org/1999/xlink" x="0px" y="0px"
	 width="1500px" height="600px" viewBox="0 0 1500 600" enable-background="new 0 0 1500 600" xml:space="preserve">
<rect x="76.576" y="148.862" transform="matrix(0.9236 -0.3835 0.3835 0.9236 -56.8486 42.1617)" fill="#4555A5" width="1.487" height="29.598"/>
<rect x="220.256" y="62.201" transform="matrix(0.9236 -0.3835 0.3835 0.9236 -12.6324 90.6339)" fill="#4555A5" width="1.487" height="29.598"/>
<rect x="284.256" y="313.107" transform="matrix(0.9236 -0.3835 0.3835 0.9236 -103.9555 134.3574)" fill="#4555A5" width="1.487" height="29.598"/>
<rect x="59.589" y="514.203" transform="matrix(0.9236 -0.3835 0.3835 0.9236 -198.2451 63.577)" fill="#4555A5" width="1.487" height="29.597"/>
<rect x="167.894" y="393.202" transform="matrix(0.9236 -0.3835 0.3835 0.9236 -143.5649 95.8588)" fill="#4555A5" width="1.487" height="29.597"/>
<rect x="381.479" y="201.098" transform="matrix(0.9236 -0.3835 0.3835 0.9236 -53.5701 163.0768)" fill="#4555A5" width="1.487" height="29.597"/>
<rect x="566.913" y="83.087" transform="matrix(0.9236 -0.3835 0.3835 0.9236 5.8596 225.1639)" fill="#4555A5" width="1.487" height="29.597"/>
<rect x="725.223" y="294.958" transform="matrix(0.9236 -0.3835 0.3835 0.9236 -63.2846 302.0687)" fill="#4555A5" width="1.487" height="29.597"/>
<rect x="718.862" y="500.25" transform="matrix(0.9236 -0.3835 0.3835 0.9236 -142.4948 315.3234)" fill="#4555A5" width="1.487" height="29.598"/>
<rect x="953.317" y="83.087" transform="matrix(0.9235 -0.3836 0.3836 0.9235 35.434 373.4551)" fill="#4555A5" width="1.487" height="29.598"/>
<rect x="940.594" y="294.957" transform="matrix(0.9235 -0.3836 0.3836 0.9235 -46.8103 384.7821)" fill="#4555A5" width="1.487" height="29.598"/>
<rect x="1196.257" y="259.201" transform="matrix(0.9235 -0.3836 0.3836 0.9235 -13.5376 480.1161)" fill="#4555A5" width="1.487" height="29.598"/>
<rect x="1102.257" y="472.343" transform="matrix(0.9235 -0.3836 0.3836 0.9235 -102.4873 460.3633)" fill="#4555A5" width="1.487" height="29.598"/>
<rect x="1368.12" y="46.219" transform="matrix(0.9235 -0.3836 0.3836 0.9235 81.3069 529.7487)" fill="#4555A5" width="1.487" height="29.598"/>
<rect x="1434.697" y="322.862" transform="matrix(0.9235 -0.3836 0.3836 0.9235 -19.7175 576.449)" fill="#4555A5" width="1.487" height="29.598"/>
<rect x="1340.257" y="514.202" transform="matrix(0.9235 -0.3836 0.3836 0.9235 -100.3376 554.8595)" fill="#4555A5" width="1.487" height="29.598"/>
<rect x="368.756" y="520.924" transform="matrix(0.9236 -0.3835 0.3835 0.9236 -177.1876 182.648)" fill="#4555A5" width="1.487" height="29.597"/>
<rect x="480.426" y="393.203" transform="matrix(0.9236 -0.3835 0.3835 0.9236 -119.6729 215.7064)" fill="#4555A5" width="1.487" height="29.597"/>
<rect x="896.737" y="555.074" transform="matrix(0.9235 -0.3836 0.3836 0.9235 -149.943 387.8567)" fill="#4555A5" width="1.487" height="29.597"/>
</svg>
